<svg
   viewBox="0 0 500 500"
   version="1.1"
   xmlns="http://www.w3.org/2000/svg">
   <style>
      @media (prefers-color-scheme: dark) {
         .a { fill: #fff }
      }
   </style>
   <path
      class="a"
      fill="#000"
      d="M 250 0 A 250.00001 250.00001 0 0 0 0 250 A 250.00001 250.00001 0 0 0 250 500 A 250.00001 250.00001 0 0 0 500 250 A 250.00001 250.00001 0 0 0 250 0 z M 178.7207 105.64453 L 232.5293 105.64453 L 232.5293 390.64453 L 184.10156 390.64453 L 181.50391 369.30664 C 168.14449 386.00591 150.95059 394.35547 129.92188 394.35547 C 106.29549 394.35547 87.30799 385.07819 72.958984 366.52344 C 58.733677 347.84499 51.621094 321.93045 51.621094 288.7793 C 51.621094 257.48362 58.60998 232.55866 72.587891 214.00391 C 86.6895 195.44916 105.9244 186.17188 130.29297 186.17188 C 149.8373 186.17188 165.97978 193.47 178.7207 208.06641 L 178.7207 105.64453 z M 247.61719 120.48828 L 342.24609 120.48828 C 375.02615 120.48828 399.88927 126.79683 416.83594 139.41406 C 433.78261 151.90759 442.25586 170.27661 442.25586 194.52148 C 442.25586 207.75721 438.85419 219.44658 432.05078 229.58984 C 425.24737 239.60941 415.78455 246.96939 403.66211 251.66992 C 417.51632 255.13348 428.40167 262.12236 436.31836 272.63672 C 444.35875 283.15108 448.37891 296.01557 448.37891 311.23047 C 448.37891 337.20712 440.0912 356.87496 423.51562 370.23438 C 406.94005 383.59379 383.3139 390.39713 352.63672 390.64453 L 247.61719 390.64453 L 247.61719 120.48828 z M 303.28125 165.57617 L 303.28125 233.67188 L 344.47266 233.67188 C 372.55218 233.17708 386.5918 221.98249 386.5918 200.08789 C 386.5918 187.84176 383.00458 179.05926 375.83008 173.74023 C 368.77927 168.29751 357.58469 165.57617 342.24609 165.57617 L 303.28125 165.57617 z M 144.02344 229.77539 C 118.17049 229.77539 105.24414 250.74205 105.24414 292.67578 C 105.24414 311.47793 108.52211 325.88864 115.07812 335.9082 C 121.63414 345.92777 131.15881 350.9375 143.65234 350.9375 C 160.22792 350.9375 171.9173 343.94861 178.7207 329.9707 L 178.7207 250.74219 C 172.04099 236.76428 160.47531 229.77539 144.02344 229.77539 z M 303.28125 273.00781 L 303.28125 345.92773 L 350.9668 345.92773 C 364.07882 345.92773 374.28383 342.83531 381.58203 336.65039 C 389.00393 330.34178 392.71484 321.68298 392.71484 310.67383 C 392.71484 285.93416 379.91219 273.37891 354.30664 273.00781 L 303.28125 273.00781 z "
      />
</svg>
